<svg width="100" height="100" viewBox="0 0 100 100" fill="none" xmlns="http://www.w3.org/2000/svg">
<g clip-path="url(#clip0_2_51)">
<path d="M6.017 4.313L61.35 0.226002C68.147 -0.356998 69.893 0.0360024 74.167 3.143L91.83 15.586C94.743 17.726 95.713 18.309 95.713 20.639V88.882C95.713 93.159 94.16 95.689 88.723 96.075L24.467 99.967C20.387 100.16 18.444 99.577 16.307 96.854L3.3 79.94C0.967 76.827 0 74.497 0 71.773V11.113C0 7.616 1.553 4.7 6.017 4.313Z" fill="white"/>
<path fill-rule="evenodd" clip-rule="evenodd" d="M61.35 0.227003L6.017 4.314C1.553 4.7 0 7.617 0 11.113V71.773C0 74.496 0.967 76.826 3.3 79.94L16.307 96.853C18.444 99.576 20.387 100.16 24.467 99.966L88.724 96.076C94.157 95.689 95.714 93.159 95.714 88.883V20.64C95.714 18.43 94.841 17.793 92.271 15.907L74.167 3.143C69.894 0.0360024 68.147 -0.356998 61.35 0.226002V0.227003ZM25.92 19.523C20.673 19.876 19.483 19.956 16.503 17.533L8.927 11.507C8.157 10.727 8.544 9.754 10.484 9.56L63.677 5.673C68.144 5.283 70.47 6.84 72.217 8.2L81.34 14.81C81.73 15.007 82.7 16.17 81.533 16.17L26.6 19.477L25.92 19.523ZM19.803 88.3V30.367C19.803 27.837 20.58 26.67 22.906 26.474L86 22.78C88.14 22.587 89.107 23.947 89.107 26.473V84.02C89.107 86.55 88.717 88.69 85.224 88.883L24.847 92.383C21.354 92.576 19.804 91.413 19.804 88.3H19.803Z" fill="black"/>
<path fill-rule="evenodd" clip-rule="evenodd" d="M61.35 0.227003L6.017 4.314C1.553 4.7 0 7.617 0 11.113V71.773C0 74.496 0.967 76.826 3.3 79.94L16.307 96.853C18.444 99.576 20.387 100.16 24.467 99.966L88.724 96.076C94.157 95.689 95.714 93.159 95.714 88.883V20.64C95.714 18.43 94.841 17.793 92.271 15.907L74.167 3.143C69.894 0.0360024 68.147 -0.356998 61.35 0.226002V0.227003ZM25.92 19.523C20.673 19.876 19.483 19.956 16.503 17.533L8.927 11.507C8.157 10.727 8.544 9.754 10.484 9.56L63.677 5.673C68.144 5.283 70.47 6.84 72.217 8.2L81.34 14.81C81.73 15.007 82.7 16.17 81.533 16.17L26.6 19.477L25.92 19.523ZM19.803 88.3V30.367C19.803 27.837 20.58 26.67 22.906 26.474L86 22.78C88.14 22.587 89.107 23.947 89.107 26.473V84.02C89.107 86.55 88.717 88.69 85.224 88.883L24.847 92.383C21.354 92.576 19.804 91.413 19.804 88.3H19.803Z" fill="black"/>
<path d="M37.7184 43.9885C39.3693 43.8984 41.2974 43.9934 43.5026 44.2736C45.7078 44.5538 47.3287 44.8926 48.3652 45.29L48.8537 54.2367L43.7413 54.5158C42.6529 52.6791 41.419 51.3577 40.0397 50.5517C38.687 49.7442 37.2385 49.3827 35.6941 49.467C34.3894 49.5382 33.2151 50.043 32.1714 50.9813C31.1528 51.8915 30.3655 53.1229 29.8093 54.6755C29.2797 56.2267 29.0658 57.9342 29.1676 59.7981C29.2824 61.9017 29.7073 63.8147 30.4423 65.5372C31.1758 67.233 32.2233 68.5646 33.5847 69.5318C34.9462 70.499 36.5854 70.9303 38.5026 70.8257C41.0321 70.6876 44.5391 69.3744 49.0235 66.8863L51.0221 69.7416L43.9849 75.8543C42.7271 76.2968 41.5154 76.6033 40.3496 76.7738C39.2104 76.9428 37.9619 77.0644 36.6039 77.1385C33.4885 77.3086 30.6956 76.7801 28.225 75.5529C25.7544 74.3258 23.7888 72.5637 22.3281 70.2665C20.8659 67.9428 20.0519 65.2632 19.8862 62.2277C19.7161 59.1123 20.5443 56.1828 22.3708 53.4392C24.2225 50.6675 26.5714 48.4428 29.4175 46.7651C32.2888 45.0594 35.0557 44.1339 37.7184 43.9885ZM84.1452 48.5845L75.8591 72.9124L67.423 75.4159L54.8411 48.9425L50.5849 47.292L52.008 44.0096L68.5434 43.1068L68.6982 45.9426L64.0805 48.6784L73.055 67.7776L79.47 48.7997L73.7104 46.0295L75.1336 42.747L88.4737 42.0188L88.6285 44.8545L84.1452 48.5845Z" fill="black"/>
</g>
<defs>
<clipPath id="clip0_2_51">
<rect width="100" height="100" fill="white"/>
</clipPath>
</defs>
</svg>
